<svg width="19" height="21" viewBox="0 0 19 21" fill="none" xmlns="http://www.w3.org/2000/svg">
<path d="M2.30664 0.131329C1.69745 0.131329 1.20359 0.625179 1.20359 1.23438C1.20359 1.84357 1.69745 2.33742 2.30664 2.33742V0.131329ZM2.30664 2.33742H18.5679V0.131329H2.30664V2.33742Z" fill="#256497"/>
<path d="M16.5234 18.2349C16.5188 18.8563 17.0188 19.3646 17.6402 19.3702C18.2615 19.3758 18.7689 18.8767 18.7735 18.2553L16.5234 18.2349ZM18.7735 18.2553L18.8987 1.24481L16.6486 1.22444L16.5234 18.2349L18.7735 18.2553Z" fill="#256497"/>
<path d="M1.11353 17.9428C0.623945 18.4857 0.623945 19.3659 1.11353 19.9088C1.60311 20.4516 2.39689 20.4516 2.88647 19.9088L1.11353 17.9428ZM2.88647 19.9088L18.2273 2.89792L16.4544 0.931977L1.11353 17.9428L2.88647 19.9088Z" fill="#256497"/>
</svg>
