<svg width="72" height="76" viewBox="0 0 72 76" fill="none" xmlns="http://www.w3.org/2000/svg">
<path fill-rule="evenodd" clip-rule="evenodd" d="M20.7211 31.5V31.5297C9.28426 32.407 0.240234 41.9716 0.240234 53.6303C0.240234 65.8642 10.194 75.818 22.4279 75.818C26.7545 75.818 30.7824 74.555 34.1976 72.4045H58.8924H68.5099C70.3925 72.4045 71.9234 70.8735 71.9234 68.991V24.6157H71.9998V21.2022H71.9234V4.1348C71.9234 2.25226 70.3925 0.721313 68.5099 0.721313H33.3749C32.4772 0.721313 31.5965 1.08485 30.9616 1.72147L21.7213 10.9618C21.4115 11.2716 21.1686 11.6302 20.9998 12.0202V31.5H20.7211ZM29.8112 63.0054L33.2435 68.95C34.9895 67.7144 36.5119 66.1902 37.7476 64.4459L31.803 61.0137C31.2193 61.7544 30.5503 62.4217 29.8112 63.0054ZM3.74076 51.9236H10.6172C10.7538 50.9763 10.9961 50.0632 11.3426 49.2013L5.40142 45.7708C4.51904 47.6738 3.93875 49.7424 3.74076 51.9236ZM11.3426 58.0593C10.9961 57.1974 10.7538 56.2843 10.6172 55.3371H3.74076C3.93875 57.5183 4.51904 59.5869 5.40142 61.4899L11.3426 58.0593ZM22.4279 45.0966C17.7224 45.0966 13.8942 48.9248 13.8942 53.6303C13.8942 58.3358 17.7224 62.164 22.4279 62.164C27.1334 62.164 30.9616 58.3358 30.9616 53.6303C30.9616 48.9248 27.1334 45.0966 22.4279 45.0966ZM33.5132 58.0593L39.4543 61.4899C40.3367 59.5869 40.917 57.5183 41.115 55.3371H34.2385C34.102 56.2843 33.8596 57.1974 33.5132 58.0593ZM33.5132 49.2013C33.8596 50.0632 34.102 50.9763 34.2385 51.9236H41.115C40.917 49.7424 40.3367 47.6738 39.4543 45.7708L33.5132 49.2013ZM22.4279 41.6831C26.2288 41.6831 29.6116 43.4735 31.8013 46.247L37.7476 42.8147C34.3444 38.0085 28.7514 34.8562 22.4279 34.8562C19.6203 34.8562 16.9629 35.4928 14.5683 36.6039L17.9989 42.545C19.3694 41.9938 20.8628 41.6831 22.4279 41.6831ZM15.0445 44.2552L11.6123 38.3106C9.86626 39.5463 8.34385 41.0704 7.10817 42.8147L13.0527 46.247C13.6365 45.5062 14.3055 44.8389 15.0445 44.2552ZM13.0527 61.0137L7.10817 64.4459C10.5114 69.2521 16.1044 72.4045 22.4279 72.4045C25.2355 72.4045 27.8929 71.7679 30.2874 70.6568L26.8569 64.7156C25.4864 65.2669 23.993 65.5775 22.4279 65.5775C18.627 65.5775 15.2442 63.7871 13.0527 61.0137ZM58.8924 68.991H68.5099V4.1348H34.3751V14.3752H24.1346V31.5297C29.4187 31.9342 34.1839 34.1888 37.7886 37.6569V28.0292H30.8848L46.3223 8.18149L61.7598 28.0292H54.856V65.5775H51.4425V24.6157H54.7792L46.3223 13.742L37.8654 24.6157H41.202V41.8606C43.3525 45.2758 44.6155 49.3037 44.6155 53.6303C44.6155 59.592 42.2397 65.0006 38.4013 68.991H58.8924ZM30.9616 6.54813L26.548 10.9618H30.9616V6.54813Z" fill="#606060"/>
</svg>
